<svg width="26" height="25" viewBox="0 0 26 25" fill="none" xmlns="http://www.w3.org/2000/svg">
<path fill-rule="evenodd" clip-rule="evenodd" d="M21.125 3H4.5C3.67157 3 3 3.67157 3 4.5V17C3 18.1046 3.83947 19 4.875 19H7.375V21.7356C7.375 22.1889 7.92976 22.4083 8.23977 22.0776L11.125 19H21.5C22.3284 19 23 18.3284 23 17.5V5C23 3.89543 22.1605 3 21.125 3ZM18.625 7H7.375C7.02982 7 6.75 7.29848 6.75 7.66667C6.75 8.03486 7.02982 8.33333 7.375 8.33333H18.625C18.9702 8.33333 19.25 8.03486 19.25 7.66667C19.25 7.29848 18.9702 7 18.625 7ZM18.625 10.3333H7.375C7.02982 10.3333 6.75 10.6318 6.75 11C6.75 11.3682 7.02982 11.6667 7.375 11.6667H18.625C18.9702 11.6667 19.25 11.3682 19.25 11C19.25 10.6318 18.9702 10.3333 18.625 10.3333ZM13 13.6667H7.375C7.02982 13.6667 6.75 13.9651 6.75 14.3333C6.75 14.7015 7.02982 15 7.375 15H13C13.3452 15 13.625 14.7015 13.625 14.3333C13.625 13.9651 13.3452 13.6667 13 13.6667Z" fill="#333333"/>
</svg>
